PathFileType	4	(X/Y/Z)	C:\Users\chris\Documents\GitHub\baseballds\vids\pitch2_Sports2D\pitch2_Sports2D_px_person00.trc
DataRate	CameraRate	NumFrames	NumMarkers	Units	OrigDataRate	OrigDataStartFrame	OrigNumFrames
30	30	5	22	m	30	30	243
Frame#	Time	Hip			RHip			RKnee			RAnkle			RBigToe			RSmallToe			RHeel			LHip			LKnee			LAnkle			LBigToe			LSmallToe			LHeel			Neck			Head			Nose			RShoulder			RElbow			RWrist			LShoulder			LElbow			LWrist		
		X1	Y1	Z1	X2	Y2	Z2	X3	Y3	Z3	X4	Y4	Z4	X5	Y5	Z5	X6	Y6	Z6	X7	Y7	Z7	X8	Y8	Z8	X9	Y9	Z9	X10	Y10	Z10	X11	Y11	Z11	X12	Y12	Z12	X13	Y13	Z13	X14	Y14	Z14	X15	Y15	Z15	X16	Y16	Z16	X17	Y17	Z17	X18	Y18	Z18	X19	Y19	Z19	X20	Y20	Z20	X21	Y21	Z21	X22	Y22	Z22
30	1.0	354.6461129748667	946.6110093234759	0.0	339.8210896952455	965.4749158696135	0.0	390.7074806215065	1238.0008599195573	0.0	357.1090379153712	1508.3304845037842	0.0	486.09702785961844	1551.4779811282558	0.0	458.13004695388	1564.9816872109354	0.0	331.7808594569417	1546.5343621259155	0.0	381.83156820774724	962.4129491223048	0.0	404.32860583006266	1221.390683273239	0.0	380.18677009679493	1453.730245907075	0.0	497.720359989323	1501.3028298085221	0.0	481.53688169192066	1479.0928655195387	0.0	353.4378724140267	1490.9156136024378	0.0	403.95749065878437	535.5955339684865	0.0	459.92533629350504	369.9832584604384	0.0	513.8724585768992	481.3988292480848	0.0	355.0443540993722	599.2980051089407	0.0	319.9582537682983	806.5297259776258	0.0	490.78312659708666	916.4902083589354	0.0	416.1859417798715	601.1454550168061	0.0	397.5560762154586	798.6533395804206	0.0	482.4512766065099	920.883419339203	0.0
31	1.0333333333333332	354.4092019703525	946.3589865970079	0.0	339.33939550323475	963.2596321155571	0.0	389.97691772613985	1240.5270160755006	0.0	356.84637830013514	1510.9456074192844	0.0	484.452178566755	1553.3492725823858	0.0	455.7533665020634	1567.7937618289523	0.0	331.9433747255414	1548.4147983065097	0.0	380.8952859668692	960.1285874779762	0.0	402.7859516453019	1221.9772462754704	0.0	380.37758817582016	1455.8101808676254	0.0	500.0391792424292	1500.974555999568	0.0	483.62549144452953	1478.370546379897	0.0	353.1839032363424	1492.7941586579811	0.0	402.8674688275662	536.2304677651822	0.0	465.2894851163456	369.1110606194142	0.0	513.3770060008422	483.8461552311811	0.0	355.50713066758595	598.5525886526914	0.0	319.4219609009201	806.8534022172042	0.0	493.7563870377862	914.3341144539465	0.0	413.2915231193966	601.0216358315243	0.0	387.28948703691236	800.7969183497415	0.0	471.9530225810261	919.1979051497325	0.0
32	1.0666666666666667	354.0111397158215	947.1971377862861	0.0	338.83694375150435	962.5173971567488	0.0	389.8576010566724	1241.987863754901	0.0	356.8364794442332	1512.6948835033063	0.0	484.14020770947616	1555.2035620270315	0.0	454.5231861364519	1569.3162802707466	0.0	332.0271357824731	1549.6403017749203	0.0	379.958671571165	959.2336047353493	0.0	403.15599687295565	1221.98558353149	0.0	381.83663101766575	1455.2746302897867	0.0	502.93034032894957	1498.6913680187204	0.0	486.7573273384849	1476.271248567303	0.0	354.65603829493716	1491.5709321955692	0.0	402.7569604451754	537.6926559640654	0.0	469.2207627905682	371.16748483125446	0.0	512.8526858745831	487.1836023615286	0.0	355.7021353078673	598.6059367881394	0.0	319.27102812867986	807.3910604128414	0.0	495.2847747180406	913.0419821924627	0.0	412.52115560390433	602.7630373712034	0.0	385.03762407512505	802.5811043844494	0.0	464.72078887735535	921.0107353374883	0.0
33	1.1	353.6859904188925	949.1877460754713	0.0	338.7746551273063	964.485561566361	0.0	390.7072061685322	1242.8880868455744	0.0	357.1692111967445	1513.553717311077	0.0	486.97097688888084	1554.0069962739997	0.0	457.6452926872454	1567.4971028351983	0.0	332.07534212120254	1550.9591785224356	0.0	378.31317220782444	961.6787777365274	0.0	404.48405975478204	1221.6894049262044	0.0	383.62844890814125	1452.8668593052978	0.0	503.1707873291656	1498.1054522126983	0.0	486.90367377707486	1475.5169704199145	0.0	356.98271082731736	1489.011937669307	0.0	404.56937411913725	540.4256018804208	0.0	471.03609190933145	375.03649173569863	0.0	512.5888541467277	491.7722332015276	0.0	357.31326813822665	600.3805775501389	0.0	319.8315900049263	809.0829845142348	0.0	496.3492978962065	910.9480207946921	0.0	414.9561429515684	606.0870603952076	0.0	387.23681707152804	805.318926845634	0.0	459.5502000796266	928.6261602929712	0.0
34	1.1333333333333333	352.00638450801824	950.0391278030955	0.0	337.8831623050269	966.3383355792257	0.0	391.1995332191599	1243.5829508297352	0.0	358.24578420056395	1514.9191052528063	0.0	491.31285920532383	1551.9397051751769	0.0	462.6655439956064	1565.9156351512856	0.0	333.1198482428375	1553.7165479649057	0.0	375.28095090536385	963.9168479142661	0.0	405.35867643592366	1221.0803506953268	0.0	384.49948243890685	1450.78613007679	0.0	502.6632944854287	1497.9382068431742	0.0	485.82838973368086	1475.3137848573758	0.0	357.7829980561064	1487.3384426374455	0.0	407.36724148633425	543.9632625048714	0.0	472.9274625073706	378.2523045354509	0.0	513.4333980266174	495.9590725192031	0.0	360.1036783106698	602.9411900876592	0.0	321.23632669635754	812.0807919517939	0.0	498.8032280939283	907.7452208543184	0.0	419.5862447642936	609.6045447268073	0.0	390.88560592445367	809.5604587181435	0.0	461.1072821419297	936.7547933390449	0.0
